<svg viewBox="0 0 262 76" xmlns="http://www.w3.org/2000/svg">
  <g fill="none" fill-rule="evenodd">
    <g fill-rule="nonzero">
      <path d="M72 34c0-3.796-2.6-7-6.204-7.796-.796-3.204-3.398-5.602-6.592-6 .398-1 .796-2 .796-3.204 0-3.796-3.204-7-7-7-1.204 0-2.4.4-3.4.796C48.798 8 46.206 6 43 6c-.6 0-1 0-1.4.204A9.08 9.08 0 0033 0c-3.204 0-6 1.6-7.6 4.204C25 4 24.4 4 24 4c-4 0-7.204 3-7.796 6.796-1-.398-2-.796-3.204-.796-3.796 0-7 3.204-7 7 0 .4 0 .796.204 1C2.6 18.6 0 21.4 0 25c0 3.796 3.204 7 7 7 .4 0 .796 0 1.204-.204C6.796 33.204 6 35 6 37c0 .4 0 .796.204 1C2.6 38.6 0 41.4 0 45c0 3.796 3.204 7 7 7 .4 0 .796 0 1-.204C8.4 55.204 11.4 58 15 58c2.204 0 4.204-1 5.6-2.796C22.204 56.796 24.6 58 27 58a8.66 8.66 0 005.796-2.204c.806 0 1.602.204 2.204.204 1.6 0 3-.204 4.6-.4 1.8 1.4 4 2.4 6.4 2.4 3.4 0 6.4-1.796 8.204-4.4A8.118 8.118 0 0060 56c4.4 0 8-3.6 8-8 0-2.4-1.204-4.6-2.796-6.204C69 41.4 72 38 72 34z" fill="#8BC34A"/>
      <path d="M18 24c-1.204 0-2-.796-2-2 0-5.204 5.204-8 10-8 1.204 0 2 .796 2 2s-.796 2-2 2c-2.4 0-6 1.204-6 4 0 1.204-.796 2-2 2zm38 0c0-5.6-4.4-10-10-10-1.204 0-2 .796-2 2s.796 2 2 2c3.4 0 6 2.6 6 6 0 1.204.796 2 2 2s2-.796 2-2zm6 14c0-1.204-.796-2-2-2s-2 .796-2 2c0 2.204-1.796 4-4 4-1.204 0-2 .796-2 2s.796 2 2 2c4.4 0 8-3.6 8-8zm-42 8c0-1.204-.796-2-2-2-2.796 0-4-3.6-4-6 0-1.204-.796-2-2-2s-2 .796-2 2c0 4.796 2.796 10 8 10 1.204 0 2-.796 2-2z" fill="#689F38"/>
      <path d="M40 72V48h-8v24c0 2-4 4-4 4h16s-4-2-4-4z" fill="#795548"/>
      <path fill="#5D4037" d="M32 46h8v4h-8z"/>
      <path fill="#8D6E63" d="M50 46H22V28l14-6 14 6z"/>
      <path fill="#3E2723" d="M32 32h8v8h-8z"/>
      <path fill="#5D4037" d="M20 32l16-8 16 8v-4l-16-8-16 8z"/>
    </g>
    <text font-family="AvenirNext-Bold, Avenir Next" font-size="24" font-weight="bold" letter-spacing="-.72" fill="#000">
      <tspan x="88" y="45">Jungle Vacation</tspan>
    </text>
  </g>
</svg>